# xmcd CD database file
# Copyright (C) 1996 Ti Kan
#
# Track frame offsets:
#	150
#	15147
#	36844
#	53387
#	73174
#	91915
#	106107
#	117666
#	129029
#	147864
#	163598
#	179810
#	196629
#	215515
#	226907
# Disc length: 3228 seconds
#
# Revision: 1
# Processed by: cddbd v1.5.2PL0 Copyright (c) Steve Scherf et al.
# Submitted via: CDCOPY 4.744
#
DISCID=bf0c9a0f
DTITLE=Acda en De Munnik - 't Heerst
DYEAR=1900
DGENRE=
TTITLE0=Voetstuk Staan
TTITLE1=Kom Dan Bij Mij
TTITLE2=Hé Mooie Vriend
TTITLE3=Suiker En Azijn
TTITLE4=Amsterdam (Hij Die Slentert)
TTITLE5=Geluk Heb Je Te Leen
TTITLE6=Hier Voor Jou
TTITLE7=Jij Hoort Bij Mij
TTITLE8=In Gedachten
TTITLE9=Halve Zinnen
TTITLE10=Woorden Van Een Ander
TTITLE11=Geef Me Al Je Armen
TTITLE12=Kop Van Zuid
TTITLE13=Sterker Nu Dan Ooit
TTITLE14=Kijk Me Na
EXTD=
EXTT0=
EXTT1=
EXTT2=
EXTT3=
EXTT4=
EXTT5=
EXTT6=
EXTT7=
EXTT8=
EXTT9=
EXTT10=
EXTT11=
EXTT12=
EXTT13=
EXTT14=
PLAYORDER=
